<?xml version="1.0" standalone="no"?>
<!DOCTYPE svg PUBLIC "-//W3C//DTD SVG 20010904//EN"
 "http://www.w3.org/TR/2001/REC-SVG-20010904/DTD/svg10.dtd">
<svg version="1.0" xmlns="http://www.w3.org/2000/svg"
 width="800.000000pt" height="800.000000pt" viewBox="0 0 800.000000 800.000000"
 preserveAspectRatio="xMidYMid meet">
<metadata>
Created by potrace 1.11, written by Peter Selinger 2001-2013
</metadata>
<g transform="translate(0.000000,800.000000) scale(0.100000,-0.100000)"
fill="#000000" stroke="none">
<path d="M4375 7579 c-49 -18 -96 -59 -112 -96 -16 -39 -25 -239 -26 -608 -1
-312 9 -426 46 -535 39 -112 172 -327 331 -533 50 -65 103 -134 118 -155 66
-89 84 -238 64 -537 -4 -60 -9 -157 -12 -215 -5 -126 -19 -210 -44 -267 -20
-46 -36 -57 -95 -68 -77 -14 -150 -61 -270 -175 -118 -113 -150 -119 -248 -53
-111 76 -277 137 -496 182 -231 48 -476 46 -801 -5 -52 -9 -99 -17 -105 -18
-5 -1 -37 -8 -70 -15 -135 -28 -284 -83 -383 -142 -228 -134 -523 -378 -792
-654 -214 -219 -278 -306 -333 -450 -16 -42 -62 -241 -72 -310 -3 -22 -10 -65
-15 -95 -5 -30 -12 -91 -15 -135 -4 -44 -9 -91 -12 -105 -3 -14 -6 -161 -8
-327 -2 -262 -4 -306 -19 -328 -9 -14 -24 -25 -34 -25 -21 0 -61 26 -85 56
-49 62 -142 84 -172 42 -16 -24 -73 -165 -83 -208 -11 -45 -5 -154 12 -208
l15 -54 -31 -26 c-18 -15 -46 -42 -62 -60 -89 -97 -79 -133 90 -320 175 -194
315 -308 475 -385 73 -36 172 -62 190 -52 11 8 192 7 249 0 100 -13 159 -29
230 -62 111 -52 221 -90 315 -108 138 -27 242 -39 430 -50 157 -10 236 -15
305 -20 98 -8 179 -13 320 -20 63 -4 129 -9 145 -11 17 -2 138 -6 270 -9 317
-7 370 6 479 117 57 59 50 97 -41 225 -139 195 -126 224 103 237 74 5 95 11
228 71 132 59 239 94 274 89 6 -1 23 -2 36 -3 25 -1 47 -21 142 -122 32 -33
77 -67 119 -89 59 -30 142 -85 350 -231 65 -46 159 -97 211 -115 135 -46 510
-34 764 25 101 23 162 65 173 120 8 37 -1 68 -32 115 -24 37 -61 63 -381 269
-130 84 -186 131 -215 181 -31 53 -39 84 -38 152 1 105 94 195 228 218 69 12
160 45 209 76 57 36 118 128 146 218 26 84 30 105 35 214 10 189 20 238 71
343 38 77 60 176 70 311 16 232 8 271 -91 403 -35 47 -40 61 -40 106 1 40 7
60 30 92 38 52 72 73 132 79 75 7 122 14 208 30 44 9 91 18 105 20 63 12 189
49 225 66 48 22 107 74 161 143 71 88 219 299 232 330 18 41 13 149 -9 209
-26 71 -75 137 -125 173 -61 42 -97 91 -134 181 -64 156 -84 193 -139 266 -31
41 -92 132 -135 203 -99 159 -173 260 -217 297 -94 80 -341 165 -496 171 -45
2 -91 9 -102 15 -30 15 -31 21 -45 260 -13 221 -18 258 -56 405 -94 368 -272
812 -426 1064 -46 76 -75 100 -129 104 -49 5 -174 -23 -210 -47 -46 -30 -64
-100 -67 -256 -3 -147 -27 -167 -105 -84 -29 32 -53 61 -53 65 0 4 -30 56 -67
116 -90 144 -192 246 -295 298 -70 34 -87 38 -170 41 -53 2 -106 -1 -123 -7z"/>
</g>
</svg>
